<svg width="39" height="41" viewBox="0 0 39 41" fill="none" xmlns="http://www.w3.org/2000/svg">
<path d="M24.2397 6.41238L24.3518 6.92369L24.8359 7.12291C25.9861 7.5963 27.0651 8.22333 28.043 8.97527L28.4579 9.29433L28.9566 9.13522L34.1633 7.47385L37.7316 13.6572L33.6877 17.3418L33.3012 17.694L33.3699 18.2123C33.4504 18.8197 33.494 19.4398 33.494 20.0654C33.494 20.6909 33.4504 21.311 33.3699 21.9184L33.3012 22.4368L33.6877 22.7889L37.7316 26.4735L34.1633 32.6569L28.9566 30.9955L28.4579 30.8364L28.043 31.1554C27.0651 31.9074 25.9861 32.5344 24.8359 33.0078L24.3515 33.2071L24.2396 33.7188L23.0683 39.0732H15.9312L14.7603 33.734L14.6482 33.2226L14.1641 33.0234C13.0139 32.55 11.9349 31.923 10.957 31.1711L10.5427 30.8525L10.0446 31.0108L4.83721 32.6655L1.26836 26.4813L5.31227 22.7967L5.69877 22.4446L5.63011 21.9262C5.54964 21.3188 5.50601 20.6987 5.50601 20.0732C5.50601 19.4477 5.54964 18.8275 5.63011 18.2201L5.69877 17.7018L5.31227 17.3496L1.26836 13.665L4.83672 7.48166L10.0434 9.14303L10.5421 9.30214L10.957 8.98308C11.9349 8.23114 13.0139 7.60412 14.1641 7.13072L14.6484 6.93144L14.7604 6.41993L15.9314 1.07317H23.0688L24.2397 6.41238ZM19.5 27.3232C23.5044 27.3232 26.7475 24.0782 26.7475 20.0732C26.7475 16.0681 23.5044 12.8232 19.5 12.8232C15.4956 12.8232 12.2525 16.0681 12.2525 20.0732C12.2525 24.0782 15.4956 27.3232 19.5 27.3232Z" stroke="#E6E6E6" stroke-width="2"/>
</svg>
