<svg width="200" height="25" viewBox="0 0 200 25" fill="none" xmlns="http://www.w3.org/2000/svg">
<path d="M4.65962 0.970165L14.2432 18.9807L18.2419 11.5782L20.1586 24.1361H21.3483L18.8698 7.87697L14.2432 16.4361L6.01454 0.970165H4.65962V0.970165ZM15.2016 9.85979L13.6484 12.7349L14.3424 13.9907L16.5235 9.85979L19.4316 4.44009L19.5307 4.20876L20.6213 2.1929H21.4144L21.5135 2.98603L23.9921 19.1129L24.5539 22.9133H23.4633L20.9517 6.55509L20.6543 4.57228L19.729 6.32377L22.3728 23.6404H22.3397L22.4389 24.1361H25.9418L22.4389 0.970165H19.8942L15.2016 9.85979ZM13.1857 19.2782L3.70126 1.39978L3.50297 1.06931L0 24.1361H5.78321L6.84071 17.2953L6.14673 16.0065L5.88235 15.5108L4.75876 22.9133H1.38797L4.16391 4.80361L14.2763 23.8386L17.8784 16.9979L17.614 15.2464L17.581 15.0151L14.2763 21.294L13.1857 19.2782ZM5.3536 11.9417L11.8308 24.1361H13.1857L4.72571 8.24049L2.57766 22.0541H3.76735L5.3536 11.9417ZM33.113 1.06931H34.3027V22.9464H46.9597V19.6417H37.6404V16.4692H38.8301V18.452H48.1494V24.1361H33.113V1.06931V1.06931ZM35.3602 1.06931H47.9841V6.72033H40.0529V5.53064H46.7944V2.259H36.5499V11.8096H44.2498V12.9992H35.3602V1.06931V1.06931ZM35.3602 14.0567H45.4065V10.7521H37.6404V3.2504H45.6378V4.44009H38.8301V9.56237H46.5962V15.2464H36.5499V20.7322H45.803V21.9219H35.3602V14.0567V14.0567ZM60.2445 0.970165L69.8281 18.9807L73.8268 11.5782L75.7435 24.1361H76.9332L74.4547 7.87697L69.8281 16.4361L61.5995 0.970165H60.2445ZM70.7865 9.85979L69.2333 12.7349L69.9273 13.9907L72.1084 9.85979L75.0165 4.44009L75.1157 4.20876L76.2062 2.1929H76.9993L77.0985 2.98603L79.577 19.1129L80.1388 22.9133H79.0482L76.5367 6.55509L76.2392 4.57228L75.3139 6.32377L77.9577 23.6404H77.9246L78.0238 24.1361H81.5268L78.0238 0.970165H75.4792L70.7865 9.85979ZM68.7706 19.2782L59.2862 1.39978L59.0879 1.06931L55.5849 24.1361H61.3681L62.4256 17.2953L61.7317 16.0065L61.4673 15.5108L60.3437 22.9133H56.9729L59.7488 4.80361L69.8612 23.8386L73.4633 16.9979L73.1989 15.2464L73.1659 15.0151L69.8612 21.294L68.7706 19.2782ZM60.9385 11.9417L67.4157 24.1361H68.7706L60.3106 8.24049L58.1626 22.0541H59.3523L60.9385 11.9417ZM100.33 24.1361C98.3146 24.1361 96.3979 23.6073 94.5803 22.5498C90.9451 20.4679 88.6979 16.6344 88.6979 12.5366C88.6979 10.4877 89.2267 8.57096 90.2842 6.75338C92.3661 3.18431 96.2657 0.937119 100.33 0.937119C102.346 0.937119 104.296 1.46587 106.114 2.49032C109.749 4.60533 111.93 8.53791 111.93 12.5366C111.93 14.5524 111.401 16.4361 110.377 18.2537C108.262 21.8889 104.428 24.1361 100.33 24.1361ZM100.33 2.09376C98.4468 2.09376 96.6953 2.55642 95.109 3.48173C91.9035 5.33236 89.9207 8.73619 89.9207 12.5366C89.9207 14.4203 90.3833 16.1717 91.3086 17.758C93.1593 20.9636 96.5301 22.9464 100.33 22.9464C102.214 22.9464 103.966 22.4837 105.585 21.5584C108.79 19.7078 110.773 16.337 110.773 12.5366C110.773 10.6529 110.311 8.90143 109.385 7.28213C107.535 4.07658 104.032 2.09376 100.33 2.09376ZM100.33 21.8889C98.6781 21.8889 97.1249 21.4593 95.6378 20.6331C92.6966 18.9477 90.879 15.8743 90.879 12.5366C90.879 10.8512 91.3086 9.29799 92.1348 7.84393C93.8202 4.9358 96.7944 3.21736 100.33 3.21736C102.115 3.21736 103.734 3.61392 105.155 4.40705C107.997 5.9933 109.65 8.96752 109.65 12.5366C109.65 14.222 109.253 15.7752 108.46 17.1962C106.841 20.0713 103.668 21.8889 100.33 21.8889ZM100.33 4.374C98.8433 4.374 97.4884 4.73751 96.2326 5.46455C93.688 6.91861 92.1348 9.52932 92.1348 12.5366C92.1348 13.9907 92.4983 15.3456 93.2584 16.6014C94.7125 19.146 97.2901 20.7322 100.33 20.7322C101.818 20.7322 103.172 20.3687 104.428 19.6086C106.907 18.1546 108.493 15.4447 108.493 12.5366C108.493 11.0495 108.13 9.66151 107.402 8.40572C105.948 5.89416 103.206 4.374 100.33 4.374V4.374ZM100.33 19.7408C99.0416 19.7408 97.8189 19.4103 96.7283 18.7825C94.5142 17.4936 93.0932 15.0482 93.0932 12.5366C93.0932 11.2478 93.4236 10.025 94.0846 8.90143C95.3734 6.65424 97.6537 5.36541 100.33 5.36541C101.619 5.36541 102.809 5.69588 103.9 6.32377C106.114 7.6126 107.402 9.85979 107.402 12.5366C107.402 13.8585 107.105 15.0482 106.51 16.1387C105.287 18.3198 102.941 19.7408 100.33 19.7408V19.7408ZM100.33 6.55509C99.273 6.55509 98.2815 6.81947 97.3562 7.34822C95.5056 8.43877 94.3159 10.3885 94.3159 12.5366C94.3159 13.5941 94.5803 14.5855 95.109 15.4778C96.1665 17.3284 98.0833 18.452 100.33 18.452C101.421 18.452 102.445 18.1876 103.338 17.6589C105.155 16.6014 106.246 14.6516 106.246 12.5366C106.246 11.446 105.981 10.4546 105.453 9.52932C104.395 7.67869 102.445 6.55509 100.33 6.55509V6.55509ZM135.063 22.9464H131.262L126.702 14.4533L123.629 14.4864V22.9464H120.291V1.00321H119.101V24.1361H124.851V15.643H126.008L130.535 24.1361H137.046L132.485 15.61L131.395 16.0396L135.063 22.9464ZM127.198 2.1929C131.989 2.1929 134.699 4.34095 134.699 8.27353C134.699 11.8426 132.551 14.0237 128.817 14.4203L127.925 14.5194L132.056 22.1532H133.41L129.808 15.4447C133.774 14.7507 135.889 12.3383 135.889 8.27353C135.889 6.91861 135.592 5.69588 135.03 4.60533C133.708 2.259 130.998 1.00321 127.198 1.00321H121.348V22.1202H122.538V2.1929H127.198V2.1929ZM126.933 13.4289C131.461 13.4289 133.609 11.8756 133.609 8.43877C133.609 5.16712 131.362 3.3165 127.759 3.3165H123.595V6.78642H127.396C129.147 6.78642 130.04 7.28213 130.04 8.27353C130.04 9.43018 128.949 9.99197 126.735 9.99197H124.818V7.94307H123.595V11.1817H126.735C129.676 11.1817 131.229 10.1572 131.229 8.27353C131.229 7.67869 131.097 7.21603 130.8 6.85252C130.238 6.02634 129.114 5.62978 127.396 5.62978H124.818V4.50619H127.759C130.701 4.50619 132.419 5.9272 132.419 8.43877C132.419 11.0495 130.668 12.2722 126.933 12.2722H123.629V13.4289H126.933ZM145.406 1.00321H148.876V21.9219H147.687V2.1929H146.596V22.9464H149.934V1.00321H151.124V24.1361H145.406V1.00321ZM173.298 2.1929L162.954 21.8889H164.375L175.248 1.00321H160.905V2.1929H173.298V2.1929ZM165.499 21.8889H173.695V20.6992H167.482L177.792 1.00321H176.438L165.499 21.8889ZM174.818 19.7078V22.9464H161.236L171.613 3.15126H160.905V6.58814H167.317L167.911 5.39845H162.095V4.34095H169.63L159.286 24.1361H176.008V18.5181H169.861L169.233 19.7078H174.818ZM184.964 1.06931H186.153V22.9464H198.81V19.6417H189.491V16.4692H190.681V18.452H200V24.1361H184.964V1.06931V1.06931ZM187.211 1.06931H199.835V6.72033H191.903V5.53064H198.645V2.259H188.401V11.8096H196.1V12.9992H187.211V1.06931V1.06931ZM187.211 14.0567H197.257V10.7521H189.491V3.2504H197.488V4.44009H190.681V9.56237H198.447V15.2464H188.401V20.7322H197.654V21.9219H187.211V14.0567V14.0567Z" fill="#E6E6E6"/>
</svg>
